<?xml version="1.0" standalone="no"?>
<!DOCTYPE svg PUBLIC "-//W3C//DTD SVG 20010904//EN"
 "http://www.w3.org/TR/2001/REC-SVG-20010904/DTD/svg10.dtd">
<svg version="1.0" xmlns="http://www.w3.org/2000/svg"
 width="687.000000pt" height="687.000000pt" viewBox="0 0 687.000000 687.000000"
 preserveAspectRatio="xMidYMid meet">
<metadata>
Created by potrace 1.14, written by Peter Selinger 2001-2017
</metadata>
<g transform="translate(0.000000,687.000000) scale(0.100000,-0.100000)"
fill="#000000" stroke="none">
<path d="M3285 6864 c-22 -2 -92 -9 -155 -15 -511 -48 -967 -198 -1443 -473
-366 -212 -731 -544 -1006 -916 -282 -380 -433 -687 -549 -1115 -93 -342 -137
-760 -113 -1075 68 -885 421 -1651 1037 -2252 586 -571 1323 -903 2154 -969
731 -58 1576 178 2175 609 245 176 430 341 598 532 476 542 738 1098 836 1775
55 377 54 710 -4 1050 -93 549 -293 1009 -636 1465 -280 372 -585 649 -979
890 -110 67 -433 228 -541 269 -372 143 -743 215 -1159 225 -96 2 -193 2 -215
0z m600 -358 c297 -51 505 -115 747 -226 150 -70 308 -158 308 -172 0 -5 -26
-8 -58 -8 -142 0 -353 -43 -512 -104 -312 -121 -620 -358 -779 -599 l-38 -58
-6 203 c-6 235 -20 305 -92 453 -41 83 -124 206 -144 213 -15 5 -20 -89 -27
-464 l-7 -361 -45 56 c-289 362 -781 630 -1208 658 -52 3 -94 9 -94 12 0 9 84
58 230 134 211 111 403 177 705 242 198 43 333 54 615 51 220 -3 276 -7 405
-30z m-1772 -671 c404 -71 788 -328 1032 -690 68 -101 158 -292 204 -430 l39
-120 38 0 38 0 46 135 c121 356 332 650 620 861 312 229 825 325 1228 229 151
-36 201 -79 277 -235 251 -516 162 -1168 -221 -1625 -120 -144 -203 -216 -444
-385 -265 -187 -452 -395 -555 -619 -20 -42 -50 -129 -66 -193 -34 -130 -34
-130 28 -203 28 -32 39 -38 61 -35 687 116 1030 221 1303 400 108 71 247 198
341 313 59 72 172 252 163 260 -6 7 -159 -17 -255 -40 -319 -75 -582 -201
-890 -427 -46 -34 -130 -84 -185 -110 -102 -50 -262 -108 -271 -98 -3 3 7 29
22 59 88 174 227 326 454 492 224 165 286 215 369 297 242 238 399 512 480
834 38 154 51 264 51 450 l1 150 20 -25 c12 -14 52 -77 90 -141 211 -356 343
-761 379 -1161 13 -139 12 -417 0 -536 -20 -179 -57 -365 -71 -356 -5 3 -9 0
-9 -5 0 -6 4 -11 9 -11 9 0 -10 -94 -22 -106 -4 -4 -7 -18 -7 -31 0 -13 -4
-23 -9 -23 -4 0 -7 -11 -6 -25 2 -14 -1 -25 -6 -25 -5 0 -8 -3 -8 -7 1 -5 1
-15 0 -23 -1 -12 -3 -13 -10 -1 -5 7 -14 10 -21 6 -9 -6 -9 -9 1 -16 10 -6 7
-9 -10 -9 -18 0 -22 -4 -18 -20 8 -31 -31 -26 -43 5 -5 14 -14 25 -20 25 -15
0 -12 -20 3 -21 9 0 9 -2 -1 -6 -7 -3 -19 2 -25 11 -11 15 -14 15 -32 1 -17
-14 -17 -16 -2 -11 21 7 23 -10 1 -18 -11 -4 -13 -13 -9 -27 6 -19 5 -20 -8
-8 -8 8 -13 17 -10 22 2 4 -1 7 -7 7 -6 0 -14 -10 -19 -22 -4 -12 -10 -17 -13
-12 -10 16 19 47 38 40 15 -6 15 -4 3 10 -11 14 -11 18 6 30 10 8 14 14 8 14
-7 0 -21 -14 -33 -30 -18 -25 -25 -29 -36 -19 -12 10 -13 9 -8 -4 3 -8 -2 -27
-12 -42 -15 -23 -22 -26 -53 -20 -23 4 -31 2 -22 -3 10 -7 10 -11 1 -17 -14
-9 -14 -8 -27 35 -11 34 -11 33 -7 -15 2 -30 0 -45 -5 -36 -7 10 -12 8 -25
-10 -15 -22 -16 -22 -18 -4 0 11 -1 26 -1 33 1 20 -18 14 -24 -8 -3 -11 -10
-20 -17 -20 -6 0 -5 -4 3 -9 10 -7 11 -12 1 -27 -11 -18 -11 -18 -5 0 6 20 6
20 -16 0 -11 -10 -30 -20 -40 -20 -10 -1 -26 -2 -34 -3 -8 0 -15 -8 -15 -16 0
-8 -4 -15 -10 -15 -17 0 -11 30 7 37 14 5 13 8 -7 15 -13 5 -25 6 -28 3 -3 -3
0 -5 6 -5 7 0 12 -4 12 -9 0 -5 -9 -7 -20 -4 -11 3 -20 0 -20 -6 0 -5 6 -8 14
-5 9 3 13 -3 12 -23 -1 -26 -5 -28 -48 -33 -26 -3 -45 -3 -42 1 2 4 0 10 -6
14 -6 3 -10 -4 -10 -17 0 -16 -3 -19 -8 -10 -5 7 -16 10 -25 6 -9 -3 -17 -2
-17 4 0 6 6 13 13 15 6 3 -1 4 -16 3 -26 -3 -62 -36 -52 -50 3 -3 2 -3 -2 0
-14 10 -9 65 4 60 7 -3 15 -1 18 4 3 5 12 7 20 3 8 -3 15 0 15 7 0 6 4 8 10 5
6 -3 7 1 4 10 -5 12 -10 13 -20 4 -8 -6 -21 -9 -29 -5 -9 3 -13 2 -10 -4 3 -6
2 -10 -4 -10 -25 0 -19 21 11 35 23 11 26 13 8 9 -14 -3 -32 -6 -41 -7 -15 -1
-23 -27 -9 -27 4 0 8 -12 8 -27 0 -22 -3 -24 -12 -12 -6 8 -17 15 -25 17 -12
3 -12 0 -1 -12 7 -9 8 -16 2 -16 -5 0 -15 6 -21 14 -6 8 -21 16 -32 19 -16 4
-18 3 -8 -9 9 -11 8 -14 -5 -14 -9 0 -16 5 -16 11 0 5 -5 7 -10 4 -6 -4 -8 -9
-6 -13 6 -10 -21 -32 -29 -24 -4 4 -5 0 -3 -8 2 -10 -4 -14 -17 -13 -11 1 -23
-3 -26 -9 -4 -5 -9 -3 -12 7 -4 9 -3 13 3 10 6 -3 10 -1 10 5 0 7 -7 9 -16 6
-9 -3 -22 -6 -30 -6 -8 0 -14 -5 -14 -10 0 -6 7 -10 16 -8 10 2 18 -5 19 -15
2 -9 -1 -15 -6 -11 -5 3 -9 0 -9 -5 0 -6 -4 -11 -9 -11 -5 0 -8 8 -7 18 1 12
-6 17 -26 16 -23 -1 -28 3 -28 22 0 12 -4 25 -9 29 -6 3 -8 -11 -5 -32 l4 -38
-21 28 c-23 30 -44 35 -56 13 -8 -14 -25 -20 -50 -17 -7 0 -12 11 -10 23 1 16
-4 23 -18 25 -12 1 -14 0 -4 -3 10 -3 16 -16 16 -34 0 -38 -17 -40 -18 -2 -1
16 -3 20 -6 10 -2 -10 -10 -18 -18 -18 -9 0 -11 -7 -7 -22 3 -14 2 -19 -6 -14
-7 4 -12 13 -12 21 0 8 -5 17 -12 21 -7 4 -8 3 -4 -4 5 -8 2 -10 -8 -6 -9 3
-16 2 -16 -3 0 -5 -9 -9 -20 -9 -11 0 -20 4 -20 8 0 4 9 8 20 8 20 0 19 1 -4
39 -14 21 -22 42 -18 47 4 4 1 4 -6 -1 -10 -5 -11 -10 -3 -18 18 -18 13 -27
-16 -28 -16 0 -37 -4 -48 -9 -15 -6 -9 -9 27 -9 28 -1 48 4 51 12 4 7 6 6 6
-5 1 -13 -11 -17 -59 -20 -73 -4 -85 -1 -70 17 9 11 7 14 -8 12 -13 -1 -18 -6
-14 -17 4 -12 2 -12 -15 3 -11 9 -24 17 -29 17 -5 0 -2 -5 6 -10 8 -5 10 -10
4 -10 -6 0 -23 9 -37 20 -14 11 -34 20 -45 20 -12 0 -24 5 -27 10 -3 6 -11 10
-17 10 -6 0 -5 -7 3 -17 13 -15 11 -15 -21 1 -19 9 -43 21 -53 27 -44 24 -21
-4 73 -94 202 -192 415 -301 669 -343 71 -12 139 -15 261 -11 201 6 342 35
521 106 65 26 119 46 119 44 0 -22 -173 -306 -266 -438 -93 -131 -267 -328
-385 -436 -103 -95 -311 -269 -320 -269 -8 0 -196 219 -343 400 -123 151 -338
411 -706 855 -118 143 -255 308 -304 368 l-89 107 -188 0 c-104 0 -189 3 -189
8 0 4 23 34 52 67 28 33 210 259 404 501 194 243 356 444 361 447 5 3 46 -4
93 -15 112 -27 297 -21 410 12 349 103 642 437 750 855 44 171 53 256 47 448
-4 149 -9 187 -35 287 -38 145 -67 223 -98 259 -34 41 -154 72 -304 78 -366
17 -734 -130 -1005 -402 -152 -152 -239 -284 -296 -451 -100 -295 -71 -608 77
-829 42 -63 45 -71 33 -91 -8 -13 -110 -144 -227 -293 l-213 -270 -78 87
c-135 151 -433 506 -443 529 -8 17 -5 28 15 55 58 76 107 235 107 348 0 123
-53 282 -121 364 -29 34 -879 833 -973 915 -36 31 -43 33 -94 29 -47 -4 -60
-10 -84 -37 -29 -33 -38 -93 -19 -129 5 -9 148 -152 318 -316 675 -655 641
-619 669 -728 39 -150 -34 -306 -176 -380 -38 -20 -60 -23 -145 -23 -95 0
-103 2 -163 34 -113 61 -141 102 -294 432 -75 162 -182 395 -238 518 -161 357
-166 364 -244 364 -55 0 -93 -23 -112 -68 -21 -52 -18 -69 35 -189 27 -61 85
-194 129 -296 140 -324 281 -642 329 -740 84 -173 237 -295 433 -345 62 -16
108 -17 307 -2 33 2 56 -25 477 -571 l41 -53 133 3 c72 2 131 0 130 -4 -2 -3
-74 -93 -160 -200 -460 -565 -625 -769 -752 -928 -76 -96 -171 -213 -211 -260
-39 -47 -172 -211 -295 -365 -233 -290 -248 -309 -290 -358 l-25 -29 -80 63
c-184 144 -301 254 -439 412 -144 165 -284 361 -377 532 -81 147 -81 151 -1
111 124 -62 287 -101 487 -117 233 -19 403 6 603 86 172 70 326 183 504 371
31 32 34 40 19 40 -10 0 -17 -6 -14 -12 2 -7 -2 -11 -11 -11 -8 1 -14 -1 -13
-6 4 -15 -63 -47 -93 -43 -26 3 -29 1 -18 -12 11 -13 10 -15 -4 -9 -10 3 -18
2 -18 -4 0 -6 -4 -8 -9 -4 -5 3 -12 1 -16 -5 -3 -5 -22 -10 -41 -10 -19 0 -33
-4 -30 -9 3 -5 -4 -12 -17 -15 -12 -3 -44 -12 -70 -21 -26 -8 -45 -10 -42 -6
3 5 28 15 55 22 34 9 47 16 40 23 -7 7 -14 6 -22 -2 -16 -16 -26 -15 -30 5 -3
14 -5 14 -18 -2 -9 -11 -10 -16 -2 -11 6 4 12 2 12 -3 0 -6 -6 -11 -13 -11 -8
0 -24 -8 -36 -19 -36 -31 -133 -39 -115 -9 5 7 2 8 -5 4 -7 -5 -10 -14 -7 -22
3 -8 -1 -14 -8 -14 -9 0 -12 7 -9 19 3 10 -1 22 -8 26 -7 5 -10 4 -5 -3 3 -6
1 -14 -5 -17 -5 -4 -8 -13 -5 -21 3 -8 2 -14 -3 -14 -5 0 -12 10 -15 23 -6 19
-7 20 -16 5 -8 -13 -14 -14 -35 -5 -23 11 -30 25 -26 55 1 6 -6 12 -16 12 -10
0 -14 -4 -8 -8 6 -4 11 -13 13 -20 2 -10 -5 -12 -28 -7 -19 4 -30 3 -30 -4 0
-6 11 -11 23 -11 13 0 34 -9 47 -20 l23 -20 -21 0 c-12 0 -22 5 -22 10 0 6
-11 10 -24 10 -33 0 -46 38 -20 57 9 7 16 15 13 17 -7 7 -44 -28 -47 -45 -1
-8 9 -22 23 -29 14 -8 22 -17 18 -20 -11 -9 -154 0 -148 10 2 4 -4 16 -14 26
-13 14 -16 27 -11 50 6 24 3 33 -12 43 -10 6 -23 9 -28 6 -12 -8 -13 -42 -1
-49 4 -3 6 6 3 19 -2 15 0 25 7 25 7 0 9 -4 6 -10 -3 -5 -1 -10 4 -10 15 0 14
-16 -4 -33 -8 -8 -11 -18 -7 -23 4 -5 -2 -2 -12 6 -13 10 -17 10 -12 3 4 -7 3
-13 -3 -13 -5 0 -11 5 -13 12 -2 6 -22 11 -44 11 -21 0 -33 2 -26 5 15 5 6 22
-13 22 -8 0 -12 -8 -9 -22 2 -13 1 -17 -2 -8 -4 8 -15 22 -26 31 -13 12 -16
24 -12 48 6 27 4 30 -10 25 -12 -5 -14 -10 -7 -17 7 -7 7 -15 1 -22 -6 -8 -3
-19 11 -34 12 -12 18 -25 15 -29 -11 -10 -46 32 -48 59 -2 23 -28 39 -28 17 0
-4 4 -8 8 -8 5 0 9 -6 9 -12 0 -7 4 -22 8 -33 6 -16 5 -17 -4 -5 -10 13 -12
13 -22 0 -8 -12 -9 -11 -4 6 4 17 1 23 -19 26 -17 4 -23 1 -19 -9 3 -7 9 -13
14 -13 5 0 9 -10 8 -22 l0 -23 -10 23 c-5 13 -12 21 -17 18 -4 -2 -14 0 -22 6
-12 8 -11 9 3 4 15 -5 17 -2 12 14 -5 15 -2 20 11 20 13 0 14 3 4 15 -9 11 -9
15 -1 15 7 0 9 5 5 11 -4 8 -9 7 -15 -2 -4 -7 -6 -16 -4 -19 5 -8 -18 -25 -38
-27 -12 0 -16 4 -13 13 6 15 -29 24 -101 27 -24 1 -43 5 -43 10 0 4 6 7 13 7
8 0 7 4 -3 10 -12 8 -10 10 10 11 14 1 29 1 33 0 5 -1 6 3 2 9 -3 5 -18 9 -33
7 -15 -1 -27 3 -27 8 0 6 3 9 7 8 9 -3 11 11 2 20 -6 6 -44 -23 -44 -35 0 -5
7 -8 15 -8 8 0 15 -7 15 -15 0 -18 -17 -20 -22 -4 -2 7 -22 13 -43 14 -34 1
-40 5 -39 23 0 12 -5 22 -12 22 -13 0 -27 27 -16 33 4 2 1 2 -7 0 -8 -2 -11 2
-7 12 3 8 0 15 -6 15 -6 0 -8 -11 -5 -30 6 -25 3 -30 -13 -30 -13 0 -19 6 -17
18 1 9 -2 17 -8 17 -5 0 -9 -3 -8 -7 5 -13 -15 -9 -30 6 -11 11 -17 12 -26 3
-8 -8 -11 -8 -11 1 0 13 12 16 45 12 11 -1 17 1 13 5 -3 4 -10 7 -15 7 -4 0
-16 4 -25 9 -13 7 -21 3 -33 -18 l-15 -28 6 39 c5 28 4 37 -5 32 -6 -4 -9 -12
-6 -17 4 -5 2 -9 -4 -9 -5 0 -14 7 -19 16 -5 9 -12 15 -15 15 -4 -1 -15 -1
-24 -1 -14 0 -15 2 -4 9 8 5 9 11 3 15 -6 3 -12 1 -14 -6 -3 -7 -9 -8 -18 -3
-10 6 -10 11 4 21 10 7 15 18 11 24 -5 7 -12 2 -21 -16 -13 -24 -12 -28 3 -40
17 -12 17 -13 1 -14 -9 0 -20 9 -23 20 -3 11 -10 20 -15 20 -14 0 -71 200
-104 370 -30 153 -39 271 -40 505 0 253 6 322 60 596 57 295 198 638 371 907
l60 92 6 -212 c6 -241 21 -330 86 -520 57 -164 118 -288 210 -424 136 -203
261 -324 561 -547 200 -148 345 -289 432 -418 54 -81 94 -157 85 -165 -5 -5
-233 83 -300 118 -33 16 -128 76 -211 132 -308 208 -481 292 -786 381 -118 34
-293 65 -305 54 -9 -10 75 -155 143 -244 228 -305 521 -482 992 -600 154 -38
506 -110 595 -120 32 -4 67 -8 77 -10 11 -2 36 17 68 52 58 64 58 54 8 213
-56 177 -169 370 -302 517 -66 73 -200 184 -358 297 -405 288 -603 563 -716
995 -35 135 -36 137 -36 356 -1 209 0 226 27 330 46 181 133 377 201 453 44
50 168 90 341 111 105 13 337 6 448 -14z m3126 -382 c41 -52 56 -126 56 -288
-1 -207 -34 -353 -127 -555 -58 -127 -190 -326 -208 -315 -5 3 -12 0 -16 -6
-5 -8 -3 -10 7 -4 8 4 -13 -20 -45 -53 -33 -34 -63 -59 -68 -56 -5 3 -5 11 -1
17 4 8 1 7 -9 -1 -13 -10 -17 -10 -21 0 -4 10 -6 10 -6 0 -1 -7 6 -15 14 -18
8 -4 12 -10 9 -15 -3 -5 -9 -7 -14 -4 -4 3 -10 -1 -13 -9 -3 -7 -22 -23 -43
-35 -23 -14 -33 -17 -25 -7 7 8 9 21 5 27 -5 9 -2 10 9 6 10 -3 17 -5 17 -2 0
9 -32 35 -43 35 -8 0 -7 -3 2 -9 7 -5 10 -14 7 -20 -11 -17 -26 -13 -27 7 0 9
-7 -1 -15 -22 -9 -27 -11 -42 -4 -46 11 -7 -31 -30 -53 -30 -7 0 -24 -7 -40
-15 -22 -11 -29 -12 -39 -1 -7 7 -22 11 -33 9 -11 -2 -14 -1 -7 3 20 9 15 44
-7 44 -11 0 -23 5 -26 10 -12 19 -25 10 -26 -17 -1 -17 -3 -21 -6 -10 -3 12
-15 17 -44 17 -26 0 -38 4 -34 11 4 6 14 8 22 5 9 -4 11 -2 7 6 -5 7 1 9 20 4
15 -4 26 -2 26 4 0 15 -52 12 -74 -5 -16 -12 -22 -12 -42 2 -22 14 -24 14 -24
0 0 -9 -4 -18 -9 -21 -20 -12 3 36 25 53 17 13 20 21 12 29 -8 8 -5 14 13 21
13 5 18 10 11 10 -7 1 -10 6 -7 11 4 6 11 7 17 4 7 -4 8 -2 4 4 -8 14 38 108
60 120 9 5 15 13 15 18 -3 25 256 348 359 448 57 55 70 74 68 95 -4 34 -23 36
-89 12 -215 -81 -498 -372 -664 -683 -26 -48 -46 -76 -49 -68 -26 82 -36 204
-26 311 17 182 62 303 176 476 191 288 594 518 916 522 82 1 88 0 107 -26z
m-914 -1353 c3 -5 1 -10 -4 -10 -6 0 -11 5 -11 10 0 6 2 10 4 10 3 0 8 -4 11
-10z m165 -25 c0 -1 -6 -7 -13 -13 -10 -8 -13 -6 -14 8 -1 13 3 17 13 13 8 -3
14 -6 14 -8z m-3895 -1514 c-3 -3 -10 1 -15 9 -6 8 -10 10 -10 4 0 -7 -9 -14
-20 -17 -27 -7 -25 12 3 22 21 8 54 -5 42 -18z m5765 -2 c0 -6 -4 -7 -10 -4
-5 3 -10 11 -10 16 0 6 5 7 10 4 6 -3 10 -11 10 -16z m-230 -29 c0 -5 -4 -10
-10 -10 -5 0 -10 5 -10 10 0 6 5 10 10 10 6 0 10 -4 10 -10z m204 -15 c3 -8 1
-15 -4 -15 -6 0 -10 7 -10 15 0 8 2 15 4 15 2 0 6 -7 10 -15z m-5532 -57 c-8
-8 -9 -4 -5 13 4 13 8 18 11 10 2 -7 -1 -18 -6 -23z m5253 23 c3 -5 2 -12 -3
-15 -5 -3 -9 1 -9 9 0 17 3 19 12 6z m-5430 -51 c3 -6 -1 -7 -9 -4 -18 7 -21
14 -7 14 6 0 13 -4 16 -10z m5620 -10 c-3 -5 -14 -10 -23 -9 -14 0 -13 2 3 9
27 11 27 11 20 0z m-5175 -35 c0 -8 -7 -15 -15 -15 -16 0 -20 12 -8 23 11 12
23 8 23 -8z m-40 1 c0 -3 -4 -8 -10 -11 -5 -3 -10 -1 -10 4 0 6 5 11 10 11 6
0 10 -2 10 -4z m-250 -31 c11 -13 10 -14 -4 -9 -9 3 -16 10 -16 15 0 13 6 11
20 -6z m2681 -22 c20 -21 80 -94 134 -163 54 -69 133 -165 175 -215 42 -49
134 -162 206 -250 72 -88 215 -263 319 -390 298 -361 485 -597 485 -610 0 -24
-338 -163 -362 -148 -17 10 18 29 46 25 24 -3 28 -1 16 7 -8 6 -24 11 -36 11
-11 0 -24 3 -27 6 -10 10 -76 10 -70 1 3 -5 19 -7 35 -5 16 3 31 1 33 -3 3 -4
-15 -9 -40 -11 -25 -2 -45 1 -45 6 0 6 -7 1 -15 -10 -14 -19 -14 -18 -15 4 0
12 -5 22 -11 22 -5 0 -7 5 -4 11 4 6 13 8 21 5 7 -3 16 -1 18 3 5 7 -11 8 -48
2 -4 0 -5 -8 -2 -16 3 -8 9 -21 12 -29 4 -11 0 -13 -18 -9 -21 6 -22 5 -9 -10
7 -9 23 -18 35 -18 17 -1 18 -2 3 -6 -20 -5 -82 30 -91 52 -4 11 2 15 18 15
14 0 26 -6 29 -12 2 -7 4 -1 3 14 -1 23 -4 27 -21 21 -11 -4 -30 -7 -43 -8
-12 0 -25 -8 -28 -18 -7 -21 6 -39 13 -19 6 17 20 15 27 -3 4 -11 -2 -15 -20
-15 -17 0 -28 7 -31 20 -7 25 -23 26 -23 1 0 -19 25 -36 47 -32 6 1 14 -2 17
-7 8 -13 -38 -12 -46 1 -6 9 -10 8 -18 -3 -8 -12 -10 -11 -10 6 0 25 -23 37
-39 21 -18 -18 -14 -47 7 -41 14 5 14 4 2 -4 -17 -13 -44 4 -33 21 4 7 0 8
-12 3 -15 -5 -16 -4 -5 9 7 8 17 12 23 8 6 -3 2 5 -9 19 -10 14 -22 24 -26 21
-5 -2 -8 8 -9 24 0 24 -1 25 -8 8 -12 -29 -6 -50 13 -49 20 2 21 -15 1 -22
-20 -8 -19 -24 2 -40 10 -7 14 -16 10 -20 -4 -5 -12 -2 -17 5 -5 8 -15 11 -25
7 -15 -5 -16 -4 -6 8 10 12 9 14 -8 9 -16 -4 -19 -1 -14 16 4 17 8 19 19 10
14 -11 14 -3 5 60 -1 3 -6 0 -12 -6 -13 -13 -39 -6 -39 9 0 5 10 6 21 3 16 -5
19 -4 14 6 -6 8 -4 11 7 7 9 -4 15 0 15 8 0 17 -9 18 -25 2 -8 -8 -15 -8 -28
3 -16 12 -17 12 -11 -3 7 -19 -19 -51 -36 -45 -22 7 -18 25 5 21 13 -2 17 -2
10 2 -6 3 -10 10 -7 14 3 5 -7 5 -22 0 -44 -13 -63 -22 -63 -29 0 -4 -9 -7
-20 -8 -25 -2 -27 14 -2 20 12 3 11 5 -6 6 -13 0 -21 5 -18 10 3 4 16 6 30 4
13 -3 26 0 30 5 4 6 -2 8 -14 5 -12 -3 -20 0 -20 6 0 7 3 10 8 8 4 -3 13 1 20
9 17 18 2 18 -25 -1 -19 -13 -21 -13 -26 5 -3 11 -10 20 -16 20 -7 0 -5 -9 4
-24 10 -15 12 -26 6 -30 -6 -4 -7 -14 -4 -23 6 -15 5 -16 -9 -3 -11 10 -13 19
-6 27 17 21 0 33 -27 21 -31 -14 -33 -31 -2 -23 22 6 22 6 2 -11 -16 -13 -17
-15 -3 -11 10 3 20 2 23 -2 2 -5 -4 -11 -15 -14 -13 -3 -24 1 -30 14 -12 22
-41 14 -33 -9 4 -12 3 -14 -4 -7 -6 6 -14 20 -17 31 -6 18 -3 21 17 17 17 -3
23 0 23 15 0 10 -5 19 -11 20 -5 1 -28 4 -50 7 l-40 4 45 -13 c37 -12 48 -22
17 -17 -4 1 -15 -6 -24 -14 -19 -20 -31 -11 -13 10 10 12 10 15 -4 15 -9 0
-16 -8 -16 -20 0 -11 -5 -20 -11 -20 -5 0 -8 3 -6 8 3 4 1 16 -4 27 -6 15 -8
11 -7 -17 1 -21 -1 -40 -5 -44 -4 -4 -7 46 -7 112 0 182 -15 281 -74 517 -52
202 -111 367 -134 367 -9 0 -48 -197 -56 -290 -5 -54 -15 -313 -19 -522 -1
-60 -5 -108 -9 -108 -5 0 -8 -5 -8 -11 0 -5 4 -8 8 -5 5 3 9 -1 9 -9 0 -8 -4
-12 -8 -9 -4 2 -10 -5 -14 -15 -5 -17 -10 -19 -31 -11 -36 14 -36 13 -17 -16
17 -26 17 -27 -4 -13 -16 10 -25 10 -36 1 -11 -9 -14 -9 -14 3 0 8 6 15 14 15
7 0 13 5 13 10 0 15 -16 12 -34 -6 -9 -8 -19 -13 -24 -10 -4 2 -14 0 -22 -6
-13 -8 -13 -9 0 -5 11 3 15 -4 14 -29 -1 -19 -4 -38 -8 -42 -4 -4 -7 -2 -6 3
1 6 1 15 0 20 -1 6 -3 17 -4 25 0 8 -6 14 -13 13 -17 -4 -4 28 20 50 20 17 31
21 55 18 6 -1 12 3 12 9 0 5 7 10 15 10 8 0 15 5 15 11 0 5 -4 7 -10 4 -5 -3
-10 0 -11 7 0 7 -4 4 -8 -6 -7 -19 -28 -28 -65 -27 -10 0 -16 -2 -13 -5 3 -3
-4 -17 -16 -31 -13 -14 -21 -35 -19 -49 5 -33 -21 -41 -48 -14 -11 11 -25 18
-30 15 -6 -4 -10 -1 -10 5 0 6 -4 9 -9 5 -6 -3 -14 3 -20 12 -6 10 -10 14 -10
8 0 -21 28 -47 44 -41 9 3 13 2 10 -3 -3 -5 3 -11 12 -14 10 -2 1 -4 -19 -4
-21 -1 -36 4 -35 9 1 6 -4 13 -12 16 -8 2 -11 0 -7 -6 3 -5 2 -21 -3 -34 l-9
-23 -7 27 c-9 35 -29 25 -21 -11 5 -19 4 -22 -3 -11 -6 8 -8 34 -6 58 2 25 0
40 -6 37 -5 -4 -9 -22 -9 -41 0 -22 -4 -33 -11 -29 -6 4 -8 13 -5 21 7 18 -9
18 -27 -1 -13 -13 -16 -13 -21 0 -3 8 0 15 6 15 6 0 8 3 5 6 -4 4 -13 1 -22
-6 -11 -9 -15 -9 -15 -1 0 7 -5 9 -11 6 -6 -4 -13 2 -16 14 -6 22 -27 28 -38
11 -5 -8 -11 -7 -21 1 -11 9 -14 8 -14 -6 0 -10 3 -15 7 -12 3 4 12 2 20 -4
10 -9 13 -8 13 5 0 9 5 16 10 16 6 0 9 -3 9 -8 -4 -21 3 -32 18 -32 28 0 9 -9
-30 -14 -21 -2 -35 -1 -32 4 3 5 13 7 23 4 14 -5 15 -4 2 5 -23 17 -38 13 -46
-11 -6 -19 -7 -19 -16 -4 -5 9 -13 14 -19 11 -5 -4 -9 2 -9 11 0 16 1 16 20
-1 17 -15 20 -16 20 -3 0 17 -26 31 -41 22 -5 -3 -9 2 -9 10 0 19 4 20 33 5
l22 -12 -20 20 c-18 19 -22 19 -37 6 -11 -10 -15 -21 -10 -32 16 -35 1 -74
-25 -64 -11 4 -14 3 -9 -5 4 -7 3 -12 -3 -12 -18 0 -21 18 -4 31 9 8 18 13 20
12 1 -2 2 0 1 5 -2 4 -7 6 -11 4 -5 -1 -6 2 -2 8 11 18 -37 11 -50 -7 -11 -15
-15 -15 -29 -4 -9 7 -16 25 -17 40 0 14 -3 21 -6 14 -2 -7 -21 -15 -40 -19
-34 -6 -35 -8 -18 -20 10 -8 14 -14 8 -14 -7 0 -18 6 -25 13 -7 8 -20 14 -28
14 -59 2 -260 91 -260 116 0 7 22 40 48 73 26 32 158 196 292 363 135 167 314
390 399 495 501 622 585 726 591 726 3 0 22 -17 41 -37z m2664 27 c-3 -5 -12
-10 -18 -10 -7 0 -6 4 3 10 19 12 23 12 15 0z m-1434 -17 c12 -16 12 -17 -2
-6 -9 7 -19 10 -22 6 -4 -3 -7 -1 -7 5 0 17 16 15 31 -5z m-3621 -3 c0 -5 -5
-10 -11 -10 -5 0 -7 5 -4 10 3 6 8 10 11 10 2 0 4 -4 4 -10z m4371 -2 c1 -7 1
-20 0 -28 -2 -13 0 -13 8 -1 8 12 12 12 25 -2 19 -19 22 -34 3 -19 -13 11 -42
11 -53 -1 -17 -17 -25 -5 -9 13 10 11 15 23 10 28 -4 4 -10 1 -12 -6 -3 -7
-14 -17 -25 -23 -16 -9 -19 -8 -13 3 25 43 64 64 66 36z m29 2 c0 -5 -5 -10
-11 -10 -5 0 -7 5 -4 10 3 6 8 10 11 10 2 0 4 -4 4 -10z m55 -10 c4 -6 -5 -10
-19 -10 -14 0 -26 5 -26 10 0 6 9 10 19 10 11 0 23 -4 26 -10z m-4655 -10 c0
-5 -2 -10 -4 -10 -3 0 -8 5 -11 10 -3 6 -1 10 4 10 6 0 11 -4 11 -10z m240 6
c0 -2 -7 -9 -15 -16 -12 -10 -15 -10 -15 4 0 9 7 16 15 16 8 0 15 -2 15 -4z
m4063 -24 c-2 -14 1 -21 7 -17 6 3 10 1 10 -4 0 -18 -18 -12 -34 11 -21 29
-20 40 2 36 11 -3 16 -12 15 -26z m867 23 c0 -9 -190 -64 -205 -59 -26 10 -8
21 37 22 24 0 68 10 98 21 57 21 70 24 70 16z m-4650 -31 c0 -2 -7 -4 -15 -4
-8 0 -15 4 -15 10 0 5 7 7 15 4 8 -4 15 -8 15 -10z m3743 -17 c-5 -8 -8 -8
-10 0 -3 7 -12 9 -21 6 -14 -4 -14 -3 -3 5 17 12 43 4 34 -11z m124 0 c0 -7
-9 -14 -19 -14 -10 -1 -18 3 -18 8 0 6 5 7 10 4 6 -3 10 -1 10 4 0 6 4 11 8
11 5 0 9 -6 9 -13z m-3887 -7 c0 -5 -11 -10 -25 -10 -14 0 -25 5 -25 10 0 6
11 10 25 10 14 0 25 -4 25 -10z m4434 -5 c3 -8 1 -15 -4 -15 -6 0 -10 7 -10
15 0 8 2 15 4 15 2 0 6 -7 10 -15z m-667 -27 c-3 -8 -6 -5 -6 6 -1 11 2 17 5
13 3 -3 4 -12 1 -19z m-3796 -15 c-12 -20 -14 -14 -5 12 4 9 9 14 11 11 3 -2
0 -13 -6 -23z m52 20 c-7 -2 -19 -2 -25 0 -7 3 -2 5 12 5 14 0 19 -2 13 -5z
m4374 1 c-3 -3 -12 -4 -19 -1 -8 3 -5 6 6 6 11 1 17 -2 13 -5z m-44 -11 c-7
-2 -21 -2 -30 0 -10 3 -4 5 12 5 17 0 24 -2 18 -5z m-4290 -20 c-7 -2 -19 -2
-25 0 -7 3 -2 5 12 5 14 0 19 -2 13 -5z m120 0 c-7 -2 -19 -2 -25 0 -7 3 -2 5
12 5 14 0 19 -2 13 -5z m1717 -1573 c0 -5 -4 -10 -10 -10 -5 0 -10 5 -10 10 0
6 5 10 10 10 6 0 10 -4 10 -10z m363 -42 c10 -11 17 -21 15 -23 -4 -4 -48 32
-51 42 -1 4 -7 7 -14 5 -17 -4 -17 15 0 21 6 3 17 -2 22 -11 6 -8 18 -24 28
-34z m2 42 c3 -5 1 -10 -4 -10 -6 0 -11 5 -11 10 0 6 2 10 4 10 3 0 8 -4 11
-10z m235 -10 c0 -5 -5 -10 -11 -10 -5 0 -7 5 -4 10 3 6 8 10 11 10 2 0 4 -4
4 -10z m-1430 -40 c0 -5 -4 -10 -10 -10 -5 0 -10 5 -10 10 0 6 5 10 10 10 6 0
10 -4 10 -10z m696 -15 c1 -8 -3 -18 -8 -22 -6 -3 -8 -1 -4 5 3 6 2 13 -4 17
-6 4 -8 11 -4 16 7 12 17 4 20 -16z m54 9 c0 -2 -7 -4 -15 -4 -8 0 -15 4 -15
10 0 5 7 7 15 4 8 -4 15 -8 15 -10z m543 -5 c-8 -8 -13 -7 -18 2 -5 8 -4 10 3
5 7 -4 12 -2 12 5 0 7 3 9 7 6 4 -4 2 -12 -4 -18z m234 6 c-9 -8 -17 -20 -20
-27 -2 -7 -7 -10 -11 -6 -8 7 23 48 37 48 5 0 2 -7 -6 -15z m-732 -14 c3 -5 2
-12 -3 -15 -5 -3 -9 1 -9 9 0 17 3 19 12 6z m-424 -24 c-10 -9 -11 -8 -5 6 3
10 9 15 12 12 3 -3 0 -11 -7 -18z m-36 2 c11 -16 1 -19 -13 -3 -7 8 -8 14 -3
14 5 0 13 -5 16 -11z m433 -14 c-3 -3 -9 2 -12 12 -6 14 -5 15 5 6 7 -7 10
-15 7 -18z m392 15 c0 -5 -4 -10 -10 -10 -5 0 -10 5 -10 10 0 6 5 10 10 10 6
0 10 -4 10 -10z m-650 -4 c0 -3 -4 -8 -10 -11 -5 -3 -10 -1 -10 4 0 6 5 11 10
11 6 0 10 -2 10 -4z m1431 -7 c-16 -6 -28 -6 -35 1 -7 7 1 10 25 9 32 0 33 -1
10 -10z m-1757 -38 c-4 -3 -9 0 -11 7 -3 6 -10 9 -15 6 -7 -4 -8 -2 -4 5 6 9
11 9 22 0 8 -6 12 -15 8 -18z m116 19 c0 -5 -5 -10 -11 -10 -5 0 -7 5 -4 10 3
6 8 10 11 10 2 0 4 -4 4 -10z m1580 1 c-8 -5 -26 -11 -40 -15 -21 -5 -20 -3 5
9 32 15 60 20 35 6z m-400 -11 c0 -5 -5 -10 -11 -10 -5 0 -7 5 -4 10 3 6 8 10
11 10 2 0 4 -4 4 -10z m-1170 -16 c0 -8 -19 -13 -24 -6 -3 5 1 9 9 9 8 0 15
-2 15 -3z m1413 -21 c-7 -2 -19 -2 -25 0 -7 3 -2 5 12 5 14 0 19 -2 13 -5z
m-98 -13 c3 -5 -1 -10 -10 -10 -9 0 -13 5 -10 10 3 6 8 10 10 10 2 0 7 -4 10
-10z m48 3 c-7 -2 -19 -2 -25 0 -7 3 -2 5 12 5 14 0 19 -2 13 -5z m-160 -30
c-7 -2 -19 -2 -25 0 -7 3 -2 5 12 5 14 0 19 -2 13 -5z m-60 -10 c-7 -2 -19 -2
-25 0 -7 3 -2 5 12 5 14 0 19 -2 13 -5z"/>
<path d="M6340 2790 c0 -5 5 -10 11 -10 5 0 7 5 4 10 -3 6 -8 10 -11 10 -2 0
-4 -4 -4 -10z"/>
<path d="M6285 2780 c-3 -6 1 -7 9 -4 18 7 21 14 7 14 -6 0 -13 -4 -16 -10z"/>
<path d="M536 2741 c-8 -13 1 -46 13 -43 6 1 11 -4 11 -12 0 -17 41 -29 55
-15 7 7 5 8 -6 4 -11 -4 -25 2 -38 16 -24 26 -26 36 -9 41 8 3 6 7 -5 11 -9 3
-18 3 -21 -2z"/>
<path d="M6166 2717 c3 -10 9 -15 12 -12 3 3 0 11 -7 18 -10 9 -11 8 -5 -6z"/>
<path d="M514 2708 c4 -13 0 -18 -17 -19 -21 -1 -20 -1 3 -8 29 -8 36 1 20 26
-11 17 -11 17 -6 1z"/>
<path d="M6293 2684 c-3 -9 -1 -25 6 -36 6 -10 9 -24 5 -31 -4 -7 6 0 23 16
16 15 32 24 36 20 4 -3 7 -1 7 5 0 16 -10 15 -31 -4 -10 -9 -23 -13 -28 -9
-15 9 -14 42 2 48 9 4 9 6 -1 6 -7 1 -15 -6 -19 -15z"/>
<path d="M6150 2679 c0 -5 5 -7 10 -4 6 3 10 8 10 11 0 2 -4 4 -10 4 -5 0 -10
-5 -10 -11z"/>
<path d="M6115 2670 c-3 -5 -2 -10 4 -10 5 0 13 5 16 10 3 6 2 10 -4 10 -5 0
-13 -4 -16 -10z"/>
<path d="M600 2651 l-25 -7 25 -8 c20 -7 22 -9 8 -13 -10 -2 -18 -8 -18 -13 0
-4 8 -6 19 -3 12 3 18 13 17 29 0 13 -1 24 -1 23 0 -1 -11 -4 -25 -8z"/>
<path d="M6260 2645 c-11 -13 -10 -14 4 -9 9 3 16 10 16 15 0 13 -6 11 -20 -6z"/>
<path d="M6143 2635 c0 -8 4 -15 9 -15 4 0 8 4 8 9 0 6 -4 12 -8 15 -5 3 -9
-1 -9 -9z"/>
<path d="M6210 2640 c0 -6 7 -10 15 -10 8 0 15 2 15 4 0 2 -7 6 -15 10 -8 3
-15 1 -15 -4z"/>
<path d="M685 2620 c-13 -6 -15 -9 -5 -9 8 0 22 4 30 9 18 12 2 12 -25 0z"/>
<path d="M756 2618 c3 -5 10 -6 15 -3 13 9 11 12 -6 12 -8 0 -12 -4 -9 -9z"/>
<path d="M6063 2613 c0 -9 4 -10 14 -2 7 6 13 12 13 14 0 1 -6 2 -13 2 -8 0
-14 -6 -14 -14z"/>
<path d="M5975 2610 c3 -5 8 -10 11 -10 2 0 4 5 4 10 0 6 -5 10 -11 10 -5 0
-7 -4 -4 -10z"/>
<path d="M6100 2610 c0 -5 5 -10 11 -10 5 0 7 5 4 10 -3 6 -8 10 -11 10 -2 0
-4 -4 -4 -10z"/>
<path d="M736 2597 c3 -10 9 -15 12 -12 3 3 0 11 -7 18 -10 9 -11 8 -5 -6z"/>
<path d="M6015 2599 c-8 -20 0 -62 12 -66 5 -2 8 12 7 33 -4 41 -11 54 -19 33z"/>
<path d="M710 2590 c0 -5 5 -10 11 -10 5 0 7 5 4 10 -3 6 -8 10 -11 10 -2 0
-4 -4 -4 -10z"/>
<path d="M6064 2554 c-18 -27 -15 -38 9 -28 9 3 13 12 11 19 -3 7 2 15 13 17
17 3 17 4 1 10 -13 5 -23 0 -34 -18z"/>
<path d="M885 2560 c-3 -6 1 -7 9 -4 18 7 21 14 7 14 -6 0 -13 -4 -16 -10z"/>
<path d="M5780 2559 c0 -5 5 -7 10 -4 6 3 10 8 10 11 0 2 -4 4 -10 4 -5 0 -10
-5 -10 -11z"/>
<path d="M958 2553 c7 -3 16 -2 19 1 4 3 -2 6 -13 5 -11 0 -14 -3 -6 -6z"/>
<path d="M1059 2543 c-13 -16 -12 -17 4 -4 9 7 17 15 17 17 0 8 -8 3 -21 -13z"/>
<path d="M5910 2551 c0 -5 -3 -18 -6 -28 -3 -10 -2 -14 3 -8 4 6 19 10 31 11
20 1 23 -3 19 -23 -2 -14 -1 -21 3 -16 5 4 10 17 12 28 2 16 -2 20 -25 18 -22
-1 -27 2 -23 12 3 8 1 15 -4 15 -6 0 -10 -4 -10 -9z"/>
<path d="M858 2523 c7 -3 16 -2 19 1 4 3 -2 6 -13 5 -11 0 -14 -3 -6 -6z"/>
<path d="M882 2500 c-23 -21 -30 -36 -12 -25 6 3 10 1 10 -5 0 -6 5 -8 11 -5
6 4 8 13 5 20 -3 8 0 16 7 18 7 2 9 7 6 11 -3 3 -15 -3 -27 -14z"/>
<path d="M5725 2510 c3 -5 8 -10 11 -10 2 0 4 5 4 10 0 6 -5 10 -11 10 -5 0
-7 -4 -4 -10z"/>
<path d="M5820 2505 c-11 -13 -10 -14 4 -9 9 3 16 10 16 15 0 13 -6 11 -20 -6z"/>
<path d="M1130 2498 c0 -7 4 -19 9 -27 7 -10 9 -7 8 12 -2 26 -17 39 -17 15z"/>
<path d="M1231 2494 c0 -11 3 -14 6 -6 3 7 2 16 -1 19 -3 4 -6 -2 -5 -13z"/>
<path d="M985 2490 c3 -5 8 -10 11 -10 2 0 4 5 4 10 0 6 -5 10 -11 10 -5 0 -7
-4 -4 -10z"/>
<path d="M1173 2493 c9 -2 17 -9 17 -14 0 -5 8 -9 17 -9 15 0 14 2 -3 15 -10
8 -26 14 -34 14 -11 -1 -10 -3 3 -6z"/>
<path d="M5592 2485 c-7 -8 -9 -15 -4 -15 5 0 15 7 22 15 16 19 -1 19 -18 0z"/>
<path d="M5757 2485 c2 -7 13 -11 24 -8 25 7 24 10 -5 15 -16 3 -23 1 -19 -7z"/>
<path d="M5862 2487 c7 -8 20 -12 30 -9 25 6 12 22 -18 22 -20 0 -23 -2 -12
-13z"/>
<path d="M5675 2480 c-3 -5 -1 -10 4 -10 6 0 11 5 11 10 0 6 -2 10 -4 10 -3 0
-8 -4 -11 -10z"/>
<path d="M5845 2470 c-3 -5 -1 -10 4 -10 6 0 11 5 11 10 0 6 -2 10 -4 10 -3 0
-8 -4 -11 -10z"/>
<path d="M5640 2460 c0 -5 5 -10 11 -10 5 0 7 5 4 10 -3 6 -8 10 -11 10 -2 0
-4 -4 -4 -10z"/>
<path d="M5790 2461 c0 -5 5 -13 10 -16 6 -3 10 -2 10 4 0 5 -4 13 -10 16 -5
3 -10 2 -10 -4z"/>
<path d="M5741 2444 c0 -11 3 -14 6 -6 3 7 2 16 -1 19 -3 4 -6 -2 -5 -13z"/>
<path d="M1020 2443 c0 -6 -10 -9 -22 -7 -21 4 -21 4 -3 -5 20 -9 45 3 32 16
-4 3 -7 2 -7 -4z"/>
<path d="M1100 2440 c-12 -7 -10 -9 7 -7 12 0 19 5 17 9 -6 10 -6 10 -24 -2z"/>
<path d="M5370 2441 c0 -6 4 -13 10 -16 6 -3 7 1 4 9 -7 18 -14 21 -14 7z"/>
<path d="M5614 2438 c-4 -7 -3 -8 5 -4 6 4 14 -1 19 -11 5 -15 13 -18 32 -12
23 6 24 7 5 13 -11 4 -28 12 -37 17 -11 5 -20 5 -24 -3z"/>
<path d="M5826 2441 c-3 -5 1 -11 9 -15 9 -3 15 0 15 9 0 16 -16 20 -24 6z"/>
<path d="M5861 2434 c0 -11 3 -14 6 -6 3 7 2 16 -1 19 -3 4 -6 -2 -5 -13z"/>
<path d="M1057 2429 c7 -7 15 -10 18 -7 3 3 -2 9 -12 12 -14 6 -15 5 -6 -5z"/>
<path d="M1170 2436 c0 -2 7 -9 15 -16 13 -11 14 -10 9 4 -5 14 -24 23 -24 12z"/>
<path d="M5298 2433 c7 -3 16 -2 19 1 4 3 -2 6 -13 5 -11 0 -14 -3 -6 -6z"/>
<path d="M4565 2419 c-4 -6 -5 -12 -2 -15 2 -3 7 2 10 11 7 17 1 20 -8 4z"/>
<path d="M5215 2421 c-3 -5 -2 -12 3 -15 5 -3 9 1 9 9 0 17 -3 19 -12 6z"/>
<path d="M1650 2409 c0 -5 5 -7 10 -4 6 3 10 8 10 11 0 2 -4 4 -10 4 -5 0 -10
-5 -10 -11z"/>
<path d="M5340 2411 c0 -6 9 -9 19 -8 11 0 17 5 15 9 -7 11 -34 10 -34 -1z"/>
<path d="M5400 2410 c0 -5 4 -10 9 -10 6 0 13 5 16 10 3 6 -1 10 -9 10 -9 0
-16 -4 -16 -10z"/>
<path d="M1110 2400 c0 -5 5 -10 10 -10 6 0 10 5 10 10 0 6 -4 10 -10 10 -5 0
-10 -4 -10 -10z"/>
<path d="M1386 2392 c-2 -4 -1 -14 5 -22 7 -12 9 -10 9 8 0 23 -5 28 -14 14z"/>
<path d="M1829 2383 c-13 -16 -12 -17 4 -4 16 13 21 21 13 21 -2 0 -10 -8 -17
-17z"/>
<path d="M2186 2385 c-3 -9 -10 -13 -16 -10 -5 3 -10 1 -10 -4 0 -6 4 -11 9
-11 12 0 35 29 29 36 -3 3 -8 -2 -12 -11z"/>
<path d="M4968 2393 c6 -2 18 -2 25 0 6 3 1 5 -13 5 -14 0 -19 -2 -12 -5z"/>
<path d="M5665 2390 c4 -6 11 -8 16 -5 14 9 11 15 -7 15 -8 0 -12 -5 -9 -10z"/>
<path d="M1287 2375 c-4 -8 -3 -16 1 -19 4 -3 9 4 9 15 2 23 -3 25 -10 4z"/>
<path d="M1776 2374 c-5 -14 -4 -15 9 -4 17 14 19 20 6 20 -5 0 -12 -7 -15
-16z"/>
<path d="M2090 2381 c0 -5 7 -12 16 -15 14 -5 15 -4 4 9 -14 17 -20 19 -20 6z"/>
<path d="M4706 2375 c-3 -8 -1 -17 3 -20 5 -3 11 2 15 10 3 8 1 17 -3 20 -5 3
-11 -2 -15 -10z"/>
<path d="M5338 2380 c30 -13 28 -20 -5 -14 -19 3 -23 1 -15 -4 20 -14 57 -9
57 7 0 9 -12 16 -30 17 -27 3 -28 2 -7 -6z"/>
<path d="M5710 2379 c0 -5 5 -7 10 -4 6 3 10 8 10 11 0 2 -4 4 -10 4 -5 0 -10
-5 -10 -11z"/>
<path d="M5740 2379 c0 -5 5 -7 10 -4 6 3 10 8 10 11 0 2 -4 4 -10 4 -5 0 -10
-5 -10 -11z"/>
<path d="M4995 2370 c-3 -5 -1 -10 4 -10 6 0 11 5 11 10 0 6 -2 10 -4 10 -3 0
-8 -4 -11 -10z"/>
<path d="M5091 2364 c0 -11 3 -14 6 -6 3 7 2 16 -1 19 -3 4 -6 -2 -5 -13z"/>
<path d="M5240 2365 c-11 -13 -10 -14 4 -9 9 3 16 10 16 15 0 13 -6 11 -20 -6z"/>
<path d="M5280 2360 c0 -19 3 -21 12 -12 9 9 9 15 0 24 -9 9 -12 7 -12 -12z"/>
<path d="M1846 2362 c-3 -5 1 -9 9 -9 8 0 12 4 9 9 -3 4 -7 8 -9 8 -2 0 -6 -4
-9 -8z"/>
<path d="M4817 2359 c7 -7 15 -10 18 -7 3 3 -2 9 -12 12 -14 6 -15 5 -6 -5z"/>
<path d="M4954 2350 c2 -14 7 -23 12 -21 5 2 18 7 29 12 18 7 17 8 -7 8 -14 1
-29 7 -32 14 -2 6 -3 1 -2 -13z"/>
<path d="M1510 2345 c-7 -9 -8 -15 -2 -15 5 0 12 7 16 15 3 8 4 15 2 15 -2 0
-9 -7 -16 -15z"/>
<path d="M1800 2345 c0 -8 4 -15 10 -15 5 0 7 7 4 15 -4 8 -8 15 -10 15 -2 0
-4 -7 -4 -15z"/>
<path d="M1348 2343 c7 -3 16 -2 19 1 4 3 -2 6 -13 5 -11 0 -14 -3 -6 -6z"/>
<path d="M1387 2337 c-3 -8 1 -14 8 -14 7 0 11 6 8 14 -3 7 -6 13 -8 13 -2 0
-5 -6 -8 -13z"/>
<path d="M1712 2334 c10 -10 20 -16 22 -13 3 3 -5 11 -17 18 -21 13 -21 12 -5
-5z"/>
<path d="M5099 2333 c-13 -15 -12 -15 9 -4 23 12 28 21 13 21 -5 0 -15 -7 -22
-17z"/>
<path d="M5245 2339 c-11 -17 1 -21 15 -4 8 9 8 15 2 15 -6 0 -14 -5 -17 -11z"/>
<path d="M1587 2326 c-4 -10 -1 -13 8 -9 8 3 12 9 9 14 -7 12 -11 11 -17 -5z"/>
<path d="M1835 2320 c3 -5 8 -10 11 -10 2 0 4 5 4 10 0 6 -5 10 -11 10 -5 0
-7 -4 -4 -10z"/>
<path d="M1910 2318 c0 -9 5 -20 10 -23 13 -8 13 5 0 25 -8 13 -10 13 -10 -2z"/>
<path d="M5008 2323 c7 -3 16 -2 19 1 4 3 -2 6 -13 5 -11 0 -14 -3 -6 -6z"/>
<path d="M1494 2310 c2 -16 20 -14 24 2 3 10 2 10 -6 -1 -7 -9 -11 -10 -15 -2
-4 7 -5 8 -3 1z"/>
<path d="M1536 2305 c-20 -20 -20 -25 0 -25 9 0 12 5 8 12 -4 7 -3 8 5 4 6 -4
9 -11 6 -16 -3 -5 4 -8 14 -7 19 1 19 2 3 22 -9 11 -17 21 -18 23 -1 2 -9 -4
-18 -13z"/>
<path d="M1737 2299 c7 -7 15 -10 18 -7 3 3 -2 9 -12 12 -14 6 -15 5 -6 -5z"/>
<path d="M1870 2279 c0 -5 5 -7 10 -4 6 3 10 8 10 11 0 2 -4 4 -10 4 -5 0 -10
-5 -10 -11z"/>
<path d="M1500 2272 c0 -10 41 -24 49 -17 6 7 0 11 -26 19 -13 4 -23 3 -23 -2z"/>
<path d="M1578 2253 c7 -3 16 -2 19 1 4 3 -2 6 -13 5 -11 0 -14 -3 -6 -6z"/>
<path d="M5025 4410 c-3 -5 -1 -10 4 -10 6 0 11 5 11 10 0 6 -2 10 -4 10 -3 0
-8 -4 -11 -10z"/>
<path d="M4600 4316 c0 -2 7 -9 15 -16 13 -11 14 -10 9 4 -5 14 -24 23 -24 12z"/>
<path d="M4836 4252 c-3 -5 1 -9 9 -9 8 0 12 4 9 9 -3 4 -7 8 -9 8 -2 0 -6 -4
-9 -8z"/>
<path d="M4460 4220 c-9 -6 -10 -10 -3 -10 6 0 15 5 18 10 8 12 4 12 -15 0z"/>
<path d="M4586 4214 c-19 -19 -21 -31 -3 -15 8 6 17 8 20 4 4 -3 7 1 7 10 0
21 -4 21 -24 1z"/>
<path d="M4656 4222 c-2 -4 4 -8 15 -8 10 0 19 4 19 8 0 4 -6 8 -14 8 -8 0
-17 -4 -20 -8z"/>
<path d="M4415 4210 c-8 -13 3 -30 18 -30 8 0 7 3 -2 9 -7 5 -10 14 -7 20 4 6
5 11 2 11 -3 0 -8 -4 -11 -10z"/>
<path d="M4517 4203 c5 -12 3 -14 -7 -8 -9 5 -11 4 -6 -4 6 -9 11 -9 22 0 17
14 17 16 0 22 -11 4 -13 1 -9 -10z"/>
<path d="M4755 4200 c3 -5 11 -10 16 -10 6 0 7 5 4 10 -3 6 -11 10 -16 10 -6
0 -7 -4 -4 -10z"/>
<path d="M4391 4184 c0 -11 3 -14 6 -6 3 7 2 16 -1 19 -3 4 -6 -2 -5 -13z"/>
<path d="M4760 4164 c0 -8 5 -12 10 -9 6 4 8 11 5 16 -9 14 -15 11 -15 -7z"/>
<path d="M4497 4159 c7 -7 15 -10 18 -7 3 3 -2 9 -12 12 -14 6 -15 5 -6 -5z"/>
<path d="M4311 4137 c2 -1 12 -9 22 -16 15 -12 17 -12 11 3 -3 9 -13 16 -22
16 -8 0 -13 -1 -11 -3z"/>
<path d="M4568 4133 c7 -3 16 -2 19 1 4 3 -2 6 -13 5 -11 0 -14 -3 -6 -6z"/>
<path d="M4531 4116 c-7 -8 -8 -17 -3 -20 6 -3 15 1 21 8 7 8 8 17 3 20 -6 3
-15 -1 -21 -8z"/>
<path d="M3630 900 c0 -5 5 -10 11 -10 5 0 7 5 4 10 -3 6 -8 10 -11 10 -2 0
-4 -4 -4 -10z"/>
<path d="M3635 840 c-3 -5 -1 -10 4 -10 6 0 11 5 11 10 0 6 -2 10 -4 10 -3 0
-8 -4 -11 -10z"/>
<path d="M3672 831 c6 -11 15 -18 19 -15 4 2 10 -2 12 -8 4 -8 6 -9 6 -2 1 7
-10 19 -24 28 -25 16 -25 16 -13 -3z"/>
<path d="M3783 825 c0 -8 4 -12 9 -9 5 3 6 10 3 15 -9 13 -12 11 -12 -6z"/>
<path d="M3567 816 c-3 -8 0 -17 7 -19 10 -4 12 1 9 14 -6 23 -9 24 -16 5z"/>
<path d="M3630 816 c0 -2 8 -10 18 -17 15 -13 16 -12 3 4 -13 16 -21 21 -21
13z"/>
<path d="M3899 793 c-13 -16 -12 -17 4 -4 16 13 21 21 13 21 -2 0 -10 -8 -17
-17z"/>
<path d="M3190 794 c0 -13 18 -39 24 -34 2 3 -2 14 -10 24 -8 11 -14 16 -14
10z"/>
<path d="M3673 786 c3 -8 1 -17 -6 -20 -8 -3 -8 -5 -1 -5 6 -1 17 5 23 13 9
11 8 15 -5 20 -11 4 -15 2 -11 -8z"/>
<path d="M3610 786 c0 -2 9 -6 20 -9 11 -3 18 -1 14 4 -5 9 -34 13 -34 5z"/>
<path d="M3930 786 c0 -2 7 -7 16 -10 8 -3 12 -2 9 4 -6 10 -25 14 -25 6z"/>
<path d="M3226 754 c-4 -9 -4 -19 -1 -22 2 -3 7 3 11 12 4 9 4 19 1 22 -2 3
-7 -3 -11 -12z"/>
<path d="M3570 760 c0 -5 4 -10 9 -10 6 0 13 5 16 10 3 6 -1 10 -9 10 -9 0
-16 -4 -16 -10z"/>
<path d="M3055 749 c-4 -6 -5 -12 -2 -15 2 -3 7 2 10 11 7 17 1 20 -8 4z"/>
<path d="M2895 740 c-3 -5 -1 -10 4 -10 6 0 11 5 11 10 0 6 -2 10 -4 10 -3 0
-8 -4 -11 -10z"/>
<path d="M2955 740 c-3 -5 -1 -10 4 -10 6 0 11 5 11 10 0 6 -2 10 -4 10 -3 0
-8 -4 -11 -10z"/>
<path d="M3653 728 c8 -13 13 -14 19 -5 12 19 9 26 -11 24 -15 -1 -17 -4 -8
-19z"/>
<path d="M3703 732 c-9 -15 -8 -19 3 -19 8 0 14 9 14 19 0 10 -1 18 -3 18 -1
0 -7 -8 -14 -18z"/>
<path d="M3158 733 c7 -3 16 -2 19 1 4 3 -2 6 -13 5 -11 0 -14 -3 -6 -6z"/>
<path d="M3199 723 c6 -13 16 -23 22 -23 6 0 9 -6 6 -12 -2 -7 -10 -12 -16
-10 -7 1 -10 -2 -6 -8 3 -5 12 -10 19 -10 21 0 13 33 -13 60 -22 24 -23 24
-12 3z"/>
<path d="M3580 730 c0 -5 5 -10 11 -10 5 0 7 5 4 10 -3 6 -8 10 -11 10 -2 0
-4 -4 -4 -10z"/>
<path d="M3770 730 c0 -5 9 -14 20 -20 11 -6 20 -9 20 -8 0 2 -9 11 -20 21
-11 9 -20 13 -20 7z"/>
<path d="M3856 728 c3 -5 10 -6 15 -3 13 9 11 12 -6 12 -8 0 -12 -4 -9 -9z"/>
<path d="M3918 723 c-21 -5 -23 -14 -6 -31 18 -18 -2 -15 -22 3 -15 14 -18 14
-30 0 -10 -13 -11 -18 -1 -28 7 -7 12 -7 11 -2 -6 31 0 38 19 21 23 -21 49
-12 30 10 -9 11 -8 14 5 14 9 0 16 5 16 10 0 6 -1 9 -2 9 -2 -1 -11 -3 -20 -6z"/>
<path d="M2860 708 c0 -6 3 -8 7 -5 3 4 13 1 22 -6 14 -11 14 -10 2 6 -15 20
-31 22 -31 5z"/>
<path d="M4034 708 c-4 -7 -4 -10 1 -6 4 4 14 3 22 -4 11 -8 12 -7 7 6 -7 19
-20 21 -30 4z"/>
<path d="M2627 699 c7 -7 15 -10 18 -7 3 3 -2 9 -12 12 -14 6 -15 5 -6 -5z"/>
<path d="M2841 694 c0 -11 3 -14 6 -6 3 7 2 16 -1 19 -3 4 -6 -2 -5 -13z"/>
<path d="M3043 703 c-7 -2 -13 -12 -13 -21 0 -13 2 -13 13 3 9 11 19 15 27 10
9 -5 11 -4 6 3 -8 13 -13 14 -33 5z"/>
<path d="M2778 693 c7 -3 16 -2 19 1 4 3 -2 6 -13 5 -11 0 -14 -3 -6 -6z"/>
<path d="M3705 690 c-3 -5 -1 -10 4 -10 6 0 11 5 11 10 0 6 -2 10 -4 10 -3 0
-8 -4 -11 -10z"/>
<path d="M4000 685 c7 -8 17 -15 22 -15 5 0 3 7 -6 15 -8 8 -18 15 -22 15 -3
0 -1 -7 6 -15z"/>
<path d="M4085 691 c-3 -5 -2 -12 3 -15 5 -3 9 1 9 9 0 17 -3 19 -12 6z"/>
<path d="M2670 685 c0 -7 30 -13 34 -7 3 4 -4 9 -15 9 -10 1 -19 0 -19 -2z"/>
<path d="M2985 680 c-3 -5 -1 -10 4 -10 6 0 11 5 11 10 0 6 -2 10 -4 10 -3 0
-8 -4 -11 -10z"/>
<path d="M2566 667 c3 -10 9 -15 12 -12 3 3 0 11 -7 18 -10 9 -11 8 -5 -6z"/>
<path d="M2620 671 c0 -6 5 -11 11 -11 5 0 7 -4 4 -10 -3 -5 -1 -10 4 -10 16
0 13 16 -4 30 -10 9 -15 9 -15 1z"/>
<path d="M2745 669 c-4 -6 -5 -12 -2 -15 2 -3 7 2 10 11 7 17 1 20 -8 4z"/>
<path d="M2869 678 c-6 -21 -5 -38 2 -38 5 0 9 9 9 20 0 16 -7 28 -11 18z"/>
<path d="M2900 676 c0 -2 6 -9 13 -15 10 -8 14 -7 14 4 0 8 -6 15 -14 15 -7 0
-13 -2 -13 -4z"/>
<path d="M2940 669 c0 -5 5 -7 10 -4 6 3 10 8 10 11 0 2 -4 4 -10 4 -5 0 -10
-5 -10 -11z"/>
<path d="M4224 668 c-5 -7 -2 -9 8 -5 9 3 22 0 29 -6 11 -10 11 -9 0 6 -16 20
-27 22 -37 5z"/>
<path d="M2710 660 c0 -5 5 -10 10 -10 6 0 10 5 10 10 0 6 -4 10 -10 10 -5 0
-10 -4 -10 -10z"/>
<path d="M2773 664 c4 -4 2 -13 -4 -20 -7 -9 -6 -14 3 -20 7 -4 10 -4 6 1 -4
4 0 13 9 20 14 11 14 12 -3 19 -10 4 -15 4 -11 0z"/>
<path d="M2835 660 c-3 -5 -1 -10 4 -10 6 0 11 5 11 10 0 6 -2 10 -4 10 -3 0
-8 -4 -11 -10z"/>
<path d="M3031 639 c-18 -24 -25 -28 -37 -18 -8 6 -14 8 -14 4 0 -4 -7 -2 -15
5 -9 8 -15 8 -15 2 0 -6 10 -14 23 -18 12 -4 29 -15 38 -25 21 -24 29 -24 29
1 0 11 -5 20 -12 20 -6 0 -1 11 12 25 13 14 21 27 18 30 -2 3 -15 -9 -27 -26z"/>
<path d="M4120 659 c0 -6 -8 -9 -19 -6 -14 3 -18 -1 -16 -17 0 -11 -3 -26 -8
-33 -6 -9 -3 -9 17 0 17 8 21 13 11 15 -21 5 -19 24 3 21 9 -1 25 -1 35 0 16
1 17 3 3 16 -17 18 -26 19 -26 4z"/>
<path d="M3000 642 c0 -12 3 -12 15 -2 8 7 15 13 15 15 0 1 -7 2 -15 2 -8 0
-15 -7 -15 -15z"/>
<path d="M3115 650 c-3 -6 1 -7 9 -4 18 7 21 14 7 14 -6 0 -13 -4 -16 -10z"/>
<path d="M2894 639 c-3 -6 -2 -15 3 -20 5 -5 9 -1 9 11 0 23 -2 24 -12 9z"/>
<path d="M2548 633 c7 -3 16 -2 19 1 4 3 -2 6 -13 5 -11 0 -14 -3 -6 -6z"/>
<path d="M2500 620 c0 -5 -8 -7 -17 -4 -13 4 -14 3 -5 -3 7 -6 10 -17 6 -29
-6 -15 -3 -15 14 5 12 13 19 28 16 32 -7 12 -14 11 -14 -1z"/>
<path d="M2550 600 c32 -25 44 -25 23 0 -10 11 -24 20 -33 20 -10 0 -7 -7 10
-20z"/>
<path d="M2820 609 c0 -5 5 -7 10 -4 6 3 10 8 10 11 0 2 -4 4 -10 4 -5 0 -10
-5 -10 -11z"/>
<path d="M2875 600 c-3 -5 -1 -10 4 -10 6 0 11 5 11 10 0 6 -2 10 -4 10 -3 0
-8 -4 -11 -10z"/>
</g>
</svg>
